<svg xmlns="http://www.w3.org/2000/svg" viewBox="0 0 800 1000" role="img" aria-label="Op. Dr. Abdullah Harun Kınık için portre fotoğrafı yer tutucusu">
  <defs>
    <linearGradient id="g1" x1="0" y1="0" x2="1" y2="1">
      <stop offset="0%" stop-color="#EFEDE4"/>
      <stop offset="100%" stop-color="#DCE2D9"/>
    </linearGradient>
    <radialGradient id="g2" cx="50%" cy="38%" r="60%">
      <stop offset="0%" stop-color="#FFFFFF" stop-opacity="0.55"/>
      <stop offset="100%" stop-color="#FFFFFF" stop-opacity="0"/>
    </radialGradient>
  </defs>
  <rect width="800" height="1000" fill="url(#g1)"/>
  <rect width="800" height="1000" fill="url(#g2)"/>
  <circle cx="60" cy="70" r="1" fill="none"/>
  <!-- ince çizgi siluet: fotoğraf yerine geçici, nötr temsil -->
  <g transform="translate(400,470)" opacity="0.5">
    <path d="M0,-170 C60,-170 100,-125 100,-70 C100,-25 78,10 45,32 C120,55 172,120 178,220 L-178,220 C-172,120 -120,55 -45,32 C-78,10 -100,-25 -100,-70 C-100,-125 -60,-170 0,-170 Z"
      fill="none" stroke="#153F32" stroke-width="2.5" stroke-linejoin="round"/>
  </g>
  <g transform="translate(48,48)">
    <rect width="72" height="72" rx="16" fill="none" stroke="#153F32" stroke-opacity="0.35" stroke-width="1.5"/>
    <text x="36" y="46" font-family="-apple-system,Helvetica,Arial,sans-serif" font-size="26" font-weight="700" fill="#153F32" text-anchor="middle">HK</text>
  </g>
</svg>
